<svg xmlns="http://www.w3.org/2000/svg" viewBox="0 0 192 192" role="img" aria-labelledby="title desc">
  <title id="title">MentorMatch SA Icon</title>
  <desc id="desc">Stylised heart and cross symbol representing mentorship and healthcare.</desc>
  <defs>
    <linearGradient id="gradient" x1="0%" y1="0%" x2="100%" y2="100%">
      <stop offset="0%" stop-color="#0f172a" />
      <stop offset="100%" stop-color="#22d3ee" />
    </linearGradient>
  </defs>
  <rect width="192" height="192" rx="32" fill="#eef2ff" />
  <path fill="url(#gradient)" d="M96 36c-17.9 0-32.4 14.5-32.4 32.4 0 7.2 2.3 13.8 6.3 19.2l26.1 35.4c0.7 0.9 2.1 0.9 2.8 0l26.1-35.4c4-5.4 6.3-12 6.3-19.2C130.2 50.5 115.7 36 97.8 36H96zm0 24c4.6 0 8.4 3.8 8.4 8.4s-3.8 8.4-8.4 8.4-8.4-3.8-8.4-8.4 3.8-8.4 8.4-8.4z" />
  <path fill="#1e293b" d="M124 120h-16v-16c0-2.2-1.8-4-4-4h-16c-2.2 0-4 1.8-4 4v16H68c-2.2 0-4 1.8-4 4v16c0 2.2 1.8 4 4 4h16v16c0 2.2 1.8 4 4 4h16c2.2 0 4-1.8 4-4v-16h16c2.2 0 4-1.8 4-4v-16c0-2.2-1.8-4-4-4z" />
</svg>
